<svg width="120" height="147" viewBox="0 0 120 147" fill="none" xmlns="http://www.w3.org/2000/svg">
<rect y="13" width="120" height="120" rx="20" fill="black"/>
<path d="M70.326 106L55.85 80.432H49.646V106H36.486V40.388H61.114C66.19 40.388 70.514 41.2967 74.086 43.114C77.658 44.8687 80.3213 47.2813 82.076 50.352C83.8933 53.36 84.802 56.744 84.802 60.504C84.802 64.828 83.5487 68.7447 81.042 72.254C78.5353 75.7007 74.8067 78.082 69.856 79.398L85.554 106H70.326ZM49.646 70.562H60.644C64.216 70.562 66.8793 69.716 68.634 68.024C70.3887 66.2693 71.266 63.8567 71.266 60.786C71.266 57.778 70.3887 55.4593 68.634 53.83C66.8793 52.138 64.216 51.292 60.644 51.292H49.646V70.562Z" fill="white"/>
</svg>
